<mxfile host="Electron" modified="2024-06-03T16:05:12.608Z" agent="Mozilla/5.0 (Windows NT 10.0; Win64; x64) AppleWebKit/537.36 (KHTML, like Gecko) draw.io/24.4.13 Chrome/124.0.6367.207 Electron/30.0.6 Safari/537.36" etag="K4AtRMpZFM95jgKDZ2Lg" version="24.4.13" type="device" pages="3">
  <diagram name="Концептуальная модель" id="X3jSogamk7n9W-oPmTyb">
    <mxGraphModel dx="729" dy="351" grid="1" gridSize="10" guides="1" tooltips="1" connect="1" arrows="1" fold="1" page="1" pageScale="1" pageWidth="827" pageHeight="1169" math="0" shadow="0">
      <root>
        <mxCell id="0" />
        <mxCell id="1" parent="0" />
        <mxCell id="WQCO9HEgCwrYk8OAHvcu-2" value="Author" style="rounded=0;whiteSpace=wrap;html=1;" vertex="1" parent="1">
          <mxGeometry x="320" y="332" width="120" height="60" as="geometry" />
        </mxCell>
        <mxCell id="WQCO9HEgCwrYk8OAHvcu-4" value="Book" style="rounded=0;whiteSpace=wrap;html=1;" vertex="1" parent="1">
          <mxGeometry x="320" y="170" width="120" height="60" as="geometry" />
        </mxCell>
        <mxCell id="WQCO9HEgCwrYk8OAHvcu-6" value="" style="endArrow=none;html=1;rounded=0;exitX=0.5;exitY=0;exitDx=0;exitDy=0;entryX=0.5;entryY=1;entryDx=0;entryDy=0;" edge="1" parent="1" source="WQCO9HEgCwrYk8OAHvcu-2" target="WQCO9HEgCwrYk8OAHvcu-4">
          <mxGeometry width="50" height="50" relative="1" as="geometry">
            <mxPoint x="590" y="352" as="sourcePoint" />
            <mxPoint x="640" y="302" as="targetPoint" />
          </mxGeometry>
        </mxCell>
        <mxCell id="WQCO9HEgCwrYk8OAHvcu-7" value="M" style="text;html=1;align=center;verticalAlign=middle;resizable=0;points=[];autosize=1;strokeColor=none;fillColor=none;" vertex="1" parent="1">
          <mxGeometry x="355" y="310" width="30" height="30" as="geometry" />
        </mxCell>
        <mxCell id="WQCO9HEgCwrYk8OAHvcu-8" value="N" style="text;html=1;align=center;verticalAlign=middle;resizable=0;points=[];autosize=1;strokeColor=none;fillColor=none;" vertex="1" parent="1">
          <mxGeometry x="355" y="230" width="30" height="30" as="geometry" />
        </mxCell>
        <mxCell id="_H4yFzau16_VpaHIk6rb-1" value="Category" style="rounded=0;whiteSpace=wrap;html=1;" vertex="1" parent="1">
          <mxGeometry x="530" y="170" width="120" height="60" as="geometry" />
        </mxCell>
        <mxCell id="_H4yFzau16_VpaHIk6rb-2" value="" style="endArrow=none;html=1;rounded=0;exitX=1;exitY=0.5;exitDx=0;exitDy=0;entryX=0;entryY=0.5;entryDx=0;entryDy=0;" edge="1" parent="1" source="WQCO9HEgCwrYk8OAHvcu-4" target="_H4yFzau16_VpaHIk6rb-1">
          <mxGeometry width="50" height="50" relative="1" as="geometry">
            <mxPoint x="520" y="320" as="sourcePoint" />
            <mxPoint x="570" y="270" as="targetPoint" />
          </mxGeometry>
        </mxCell>
        <mxCell id="_H4yFzau16_VpaHIk6rb-3" value="1" style="text;html=1;align=center;verticalAlign=middle;resizable=0;points=[];autosize=1;strokeColor=none;fillColor=none;" vertex="1" parent="1">
          <mxGeometry x="505" y="178" width="30" height="30" as="geometry" />
        </mxCell>
        <mxCell id="_H4yFzau16_VpaHIk6rb-4" value="N" style="text;html=1;align=center;verticalAlign=middle;resizable=0;points=[];autosize=1;strokeColor=none;fillColor=none;" vertex="1" parent="1">
          <mxGeometry x="435" y="178" width="30" height="30" as="geometry" />
        </mxCell>
      </root>
    </mxGraphModel>
  </diagram>
  <diagram id="0QOr0VtY6DNd4EF7uF7x" name="Реляционная модель">
    <mxGraphModel dx="1890" dy="512" grid="1" gridSize="10" guides="1" tooltips="1" connect="1" arrows="1" fold="1" page="1" pageScale="1" pageWidth="827" pageHeight="1169" math="0" shadow="0">
      <root>
        <mxCell id="0" />
        <mxCell id="1" parent="0" />
        <mxCell id="7tLmDouBLEZjqFSJBAXD-1" value="Book" style="swimlane;fontStyle=0;childLayout=stackLayout;horizontal=1;startSize=30;horizontalStack=0;resizeParent=1;resizeParentMax=0;resizeLast=0;collapsible=1;marginBottom=0;whiteSpace=wrap;html=1;" vertex="1" parent="1">
          <mxGeometry x="140" y="200" width="140" height="510" as="geometry" />
        </mxCell>
        <mxCell id="7tLmDouBLEZjqFSJBAXD-2" value="Id" style="text;strokeColor=none;fillColor=none;align=left;verticalAlign=middle;spacingLeft=4;spacingRight=4;overflow=hidden;points=[[0,0.5],[1,0.5]];portConstraint=eastwest;rotatable=0;whiteSpace=wrap;html=1;" vertex="1" parent="7tLmDouBLEZjqFSJBAXD-1">
          <mxGeometry y="30" width="140" height="30" as="geometry" />
        </mxCell>
        <mxCell id="7tLmDouBLEZjqFSJBAXD-3" value="ISBN&lt;span style=&quot;white-space: pre;&quot;&gt;&#x9;&lt;/span&gt;" style="text;strokeColor=none;fillColor=none;align=left;verticalAlign=middle;spacingLeft=4;spacingRight=4;overflow=hidden;points=[[0,0.5],[1,0.5]];portConstraint=eastwest;rotatable=0;whiteSpace=wrap;html=1;" vertex="1" parent="7tLmDouBLEZjqFSJBAXD-1">
          <mxGeometry y="60" width="140" height="30" as="geometry" />
        </mxCell>
        <mxCell id="7tLmDouBLEZjqFSJBAXD-4" value="TItle" style="text;strokeColor=none;fillColor=none;align=left;verticalAlign=middle;spacingLeft=4;spacingRight=4;overflow=hidden;points=[[0,0.5],[1,0.5]];portConstraint=eastwest;rotatable=0;whiteSpace=wrap;html=1;" vertex="1" parent="7tLmDouBLEZjqFSJBAXD-1">
          <mxGeometry y="90" width="140" height="30" as="geometry" />
        </mxCell>
        <mxCell id="7tLmDouBLEZjqFSJBAXD-9" value="AuthorId" style="text;strokeColor=none;fillColor=none;align=left;verticalAlign=middle;spacingLeft=4;spacingRight=4;overflow=hidden;points=[[0,0.5],[1,0.5]];portConstraint=eastwest;rotatable=0;whiteSpace=wrap;html=1;" vertex="1" parent="7tLmDouBLEZjqFSJBAXD-1">
          <mxGeometry y="120" width="140" height="30" as="geometry" />
        </mxCell>
        <mxCell id="7tLmDouBLEZjqFSJBAXD-10" value="Publisher" style="text;strokeColor=none;fillColor=none;align=left;verticalAlign=middle;spacingLeft=4;spacingRight=4;overflow=hidden;points=[[0,0.5],[1,0.5]];portConstraint=eastwest;rotatable=0;whiteSpace=wrap;html=1;" vertex="1" parent="7tLmDouBLEZjqFSJBAXD-1">
          <mxGeometry y="150" width="140" height="30" as="geometry" />
        </mxCell>
        <mxCell id="7tLmDouBLEZjqFSJBAXD-11" value="PublicationDate&lt;span style=&quot;white-space: pre;&quot;&gt;&#x9;&lt;/span&gt;" style="text;strokeColor=none;fillColor=none;align=left;verticalAlign=middle;spacingLeft=4;spacingRight=4;overflow=hidden;points=[[0,0.5],[1,0.5]];portConstraint=eastwest;rotatable=0;whiteSpace=wrap;html=1;" vertex="1" parent="7tLmDouBLEZjqFSJBAXD-1">
          <mxGeometry y="180" width="140" height="30" as="geometry" />
        </mxCell>
        <mxCell id="7tLmDouBLEZjqFSJBAXD-12" value="Genre" style="text;strokeColor=none;fillColor=none;align=left;verticalAlign=middle;spacingLeft=4;spacingRight=4;overflow=hidden;points=[[0,0.5],[1,0.5]];portConstraint=eastwest;rotatable=0;whiteSpace=wrap;html=1;" vertex="1" parent="7tLmDouBLEZjqFSJBAXD-1">
          <mxGeometry y="210" width="140" height="30" as="geometry" />
        </mxCell>
        <mxCell id="7tLmDouBLEZjqFSJBAXD-13" value="Description" style="text;strokeColor=none;fillColor=none;align=left;verticalAlign=middle;spacingLeft=4;spacingRight=4;overflow=hidden;points=[[0,0.5],[1,0.5]];portConstraint=eastwest;rotatable=0;whiteSpace=wrap;html=1;" vertex="1" parent="7tLmDouBLEZjqFSJBAXD-1">
          <mxGeometry y="240" width="140" height="30" as="geometry" />
        </mxCell>
        <mxCell id="7tLmDouBLEZjqFSJBAXD-14" value="Language" style="text;strokeColor=none;fillColor=none;align=left;verticalAlign=middle;spacingLeft=4;spacingRight=4;overflow=hidden;points=[[0,0.5],[1,0.5]];portConstraint=eastwest;rotatable=0;whiteSpace=wrap;html=1;" vertex="1" parent="7tLmDouBLEZjqFSJBAXD-1">
          <mxGeometry y="270" width="140" height="30" as="geometry" />
        </mxCell>
        <mxCell id="7tLmDouBLEZjqFSJBAXD-15" value="Price" style="text;strokeColor=none;fillColor=none;align=left;verticalAlign=middle;spacingLeft=4;spacingRight=4;overflow=hidden;points=[[0,0.5],[1,0.5]];portConstraint=eastwest;rotatable=0;whiteSpace=wrap;html=1;" vertex="1" parent="7tLmDouBLEZjqFSJBAXD-1">
          <mxGeometry y="300" width="140" height="30" as="geometry" />
        </mxCell>
        <mxCell id="wck25djCRt7kKJPoLgGB-1" value="Pages" style="text;strokeColor=none;fillColor=none;align=left;verticalAlign=middle;spacingLeft=4;spacingRight=4;overflow=hidden;points=[[0,0.5],[1,0.5]];portConstraint=eastwest;rotatable=0;whiteSpace=wrap;html=1;" vertex="1" parent="7tLmDouBLEZjqFSJBAXD-1">
          <mxGeometry y="330" width="140" height="30" as="geometry" />
        </mxCell>
        <mxCell id="7tLmDouBLEZjqFSJBAXD-16" value="CoverType" style="text;strokeColor=none;fillColor=none;align=left;verticalAlign=middle;spacingLeft=4;spacingRight=4;overflow=hidden;points=[[0,0.5],[1,0.5]];portConstraint=eastwest;rotatable=0;whiteSpace=wrap;html=1;" vertex="1" parent="7tLmDouBLEZjqFSJBAXD-1">
          <mxGeometry y="360" width="140" height="30" as="geometry" />
        </mxCell>
        <mxCell id="7tLmDouBLEZjqFSJBAXD-17" value="Weight" style="text;strokeColor=none;fillColor=none;align=left;verticalAlign=middle;spacingLeft=4;spacingRight=4;overflow=hidden;points=[[0,0.5],[1,0.5]];portConstraint=eastwest;rotatable=0;whiteSpace=wrap;html=1;" vertex="1" parent="7tLmDouBLEZjqFSJBAXD-1">
          <mxGeometry y="390" width="140" height="30" as="geometry" />
        </mxCell>
        <mxCell id="7tLmDouBLEZjqFSJBAXD-18" value="Rating" style="text;strokeColor=none;fillColor=none;align=left;verticalAlign=middle;spacingLeft=4;spacingRight=4;overflow=hidden;points=[[0,0.5],[1,0.5]];portConstraint=eastwest;rotatable=0;whiteSpace=wrap;html=1;" vertex="1" parent="7tLmDouBLEZjqFSJBAXD-1">
          <mxGeometry y="420" width="140" height="30" as="geometry" />
        </mxCell>
        <mxCell id="7tLmDouBLEZjqFSJBAXD-22" value="ImageUrl" style="text;strokeColor=none;fillColor=none;align=left;verticalAlign=middle;spacingLeft=4;spacingRight=4;overflow=hidden;points=[[0,0.5],[1,0.5]];portConstraint=eastwest;rotatable=0;whiteSpace=wrap;html=1;" vertex="1" parent="7tLmDouBLEZjqFSJBAXD-1">
          <mxGeometry y="450" width="140" height="30" as="geometry" />
        </mxCell>
        <mxCell id="7tLmDouBLEZjqFSJBAXD-21" value="CategoryId" style="text;strokeColor=none;fillColor=none;align=left;verticalAlign=middle;spacingLeft=4;spacingRight=4;overflow=hidden;points=[[0,0.5],[1,0.5]];portConstraint=eastwest;rotatable=0;whiteSpace=wrap;html=1;" vertex="1" parent="7tLmDouBLEZjqFSJBAXD-1">
          <mxGeometry y="480" width="140" height="30" as="geometry" />
        </mxCell>
        <mxCell id="7tLmDouBLEZjqFSJBAXD-5" value="Author" style="swimlane;fontStyle=0;childLayout=stackLayout;horizontal=1;startSize=30;horizontalStack=0;resizeParent=1;resizeParentMax=0;resizeLast=0;collapsible=1;marginBottom=0;whiteSpace=wrap;html=1;" vertex="1" parent="1">
          <mxGeometry x="430" y="200" width="140" height="120" as="geometry" />
        </mxCell>
        <mxCell id="7tLmDouBLEZjqFSJBAXD-6" value="Id" style="text;strokeColor=none;fillColor=none;align=left;verticalAlign=middle;spacingLeft=4;spacingRight=4;overflow=hidden;points=[[0,0.5],[1,0.5]];portConstraint=eastwest;rotatable=0;whiteSpace=wrap;html=1;" vertex="1" parent="7tLmDouBLEZjqFSJBAXD-5">
          <mxGeometry y="30" width="140" height="30" as="geometry" />
        </mxCell>
        <mxCell id="7tLmDouBLEZjqFSJBAXD-7" value="Name" style="text;strokeColor=none;fillColor=none;align=left;verticalAlign=middle;spacingLeft=4;spacingRight=4;overflow=hidden;points=[[0,0.5],[1,0.5]];portConstraint=eastwest;rotatable=0;whiteSpace=wrap;html=1;" vertex="1" parent="7tLmDouBLEZjqFSJBAXD-5">
          <mxGeometry y="60" width="140" height="30" as="geometry" />
        </mxCell>
        <mxCell id="7tLmDouBLEZjqFSJBAXD-8" value="Biography" style="text;strokeColor=none;fillColor=none;align=left;verticalAlign=middle;spacingLeft=4;spacingRight=4;overflow=hidden;points=[[0,0.5],[1,0.5]];portConstraint=eastwest;rotatable=0;whiteSpace=wrap;html=1;" vertex="1" parent="7tLmDouBLEZjqFSJBAXD-5">
          <mxGeometry y="90" width="140" height="30" as="geometry" />
        </mxCell>
        <mxCell id="7tLmDouBLEZjqFSJBAXD-24" value="" style="edgeStyle=entityRelationEdgeStyle;fontSize=12;html=1;endArrow=ERmany;startArrow=ERmany;rounded=0;" edge="1" parent="1" source="7tLmDouBLEZjqFSJBAXD-1" target="7tLmDouBLEZjqFSJBAXD-5">
          <mxGeometry width="100" height="100" relative="1" as="geometry">
            <mxPoint x="400" y="370" as="sourcePoint" />
            <mxPoint x="500" y="270" as="targetPoint" />
          </mxGeometry>
        </mxCell>
        <mxCell id="yUxh7cTuhPerbqZJC2Mj-1" value="Category" style="swimlane;fontStyle=0;childLayout=stackLayout;horizontal=1;startSize=30;horizontalStack=0;resizeParent=1;resizeParentMax=0;resizeLast=0;collapsible=1;marginBottom=0;whiteSpace=wrap;html=1;" vertex="1" parent="1">
          <mxGeometry x="-110" y="200" width="140" height="90" as="geometry" />
        </mxCell>
        <mxCell id="yUxh7cTuhPerbqZJC2Mj-2" value="Id" style="text;strokeColor=none;fillColor=none;align=left;verticalAlign=middle;spacingLeft=4;spacingRight=4;overflow=hidden;points=[[0,0.5],[1,0.5]];portConstraint=eastwest;rotatable=0;whiteSpace=wrap;html=1;" vertex="1" parent="yUxh7cTuhPerbqZJC2Mj-1">
          <mxGeometry y="30" width="140" height="30" as="geometry" />
        </mxCell>
        <mxCell id="yUxh7cTuhPerbqZJC2Mj-3" value="Name" style="text;strokeColor=none;fillColor=none;align=left;verticalAlign=middle;spacingLeft=4;spacingRight=4;overflow=hidden;points=[[0,0.5],[1,0.5]];portConstraint=eastwest;rotatable=0;whiteSpace=wrap;html=1;" vertex="1" parent="yUxh7cTuhPerbqZJC2Mj-1">
          <mxGeometry y="60" width="140" height="30" as="geometry" />
        </mxCell>
        <mxCell id="rQ04FfV6Fz01VnvUhLtW-1" value="" style="edgeStyle=entityRelationEdgeStyle;fontSize=12;html=1;endArrow=ERoneToMany;startArrow=ERoneToMany;rounded=0;exitX=1;exitY=0.5;exitDx=0;exitDy=0;entryX=0;entryY=0.5;entryDx=0;entryDy=0;" edge="1" parent="1" source="yUxh7cTuhPerbqZJC2Mj-2" target="7tLmDouBLEZjqFSJBAXD-21">
          <mxGeometry width="100" height="100" relative="1" as="geometry">
            <mxPoint x="270" y="500" as="sourcePoint" />
            <mxPoint x="370" y="400" as="targetPoint" />
          </mxGeometry>
        </mxCell>
      </root>
    </mxGraphModel>
  </diagram>
  <diagram id="eephpc6vXSYcKelNsSLO" name="Физическая модель">
    <mxGraphModel dx="1949" dy="547" grid="1" gridSize="10" guides="1" tooltips="1" connect="1" arrows="1" fold="1" page="1" pageScale="1" pageWidth="827" pageHeight="1169" math="0" shadow="0">
      <root>
        <mxCell id="0" />
        <mxCell id="1" parent="0" />
        <mxCell id="6zmzIqhys5MrnKEYhRIx-14" value="Author" style="shape=table;startSize=30;container=1;collapsible=0;childLayout=tableLayout;strokeColor=default;fontSize=16;" vertex="1" parent="1">
          <mxGeometry x="-240" y="260" width="240" height="150" as="geometry" />
        </mxCell>
        <mxCell id="6zmzIqhys5MrnKEYhRIx-15" value="" style="shape=tableRow;horizontal=0;startSize=0;swimlaneHead=0;swimlaneBody=0;strokeColor=inherit;top=0;left=0;bottom=0;right=0;collapsible=0;dropTarget=0;fillColor=none;points=[[0,0.5],[1,0.5]];portConstraint=eastwest;fontSize=16;" vertex="1" parent="6zmzIqhys5MrnKEYhRIx-14">
          <mxGeometry y="30" width="240" height="40" as="geometry" />
        </mxCell>
        <mxCell id="6zmzIqhys5MrnKEYhRIx-16" value="PK" style="shape=partialRectangle;html=1;whiteSpace=wrap;connectable=0;strokeColor=inherit;overflow=hidden;fillColor=none;top=0;left=0;bottom=0;right=0;pointerEvents=1;fontSize=16;" vertex="1" parent="6zmzIqhys5MrnKEYhRIx-15">
          <mxGeometry width="80" height="40" as="geometry">
            <mxRectangle width="80" height="40" as="alternateBounds" />
          </mxGeometry>
        </mxCell>
        <mxCell id="6zmzIqhys5MrnKEYhRIx-17" value="Id" style="shape=partialRectangle;html=1;whiteSpace=wrap;connectable=0;strokeColor=inherit;overflow=hidden;fillColor=none;top=0;left=0;bottom=0;right=0;pointerEvents=1;fontSize=16;" vertex="1" parent="6zmzIqhys5MrnKEYhRIx-15">
          <mxGeometry x="80" width="80" height="40" as="geometry">
            <mxRectangle width="80" height="40" as="alternateBounds" />
          </mxGeometry>
        </mxCell>
        <mxCell id="6zmzIqhys5MrnKEYhRIx-18" value="" style="shape=partialRectangle;html=1;whiteSpace=wrap;connectable=0;strokeColor=inherit;overflow=hidden;fillColor=none;top=0;left=0;bottom=0;right=0;pointerEvents=1;fontSize=16;" vertex="1" parent="6zmzIqhys5MrnKEYhRIx-15">
          <mxGeometry x="160" width="80" height="40" as="geometry">
            <mxRectangle width="80" height="40" as="alternateBounds" />
          </mxGeometry>
        </mxCell>
        <mxCell id="6zmzIqhys5MrnKEYhRIx-19" value="" style="shape=tableRow;horizontal=0;startSize=0;swimlaneHead=0;swimlaneBody=0;strokeColor=inherit;top=0;left=0;bottom=0;right=0;collapsible=0;dropTarget=0;fillColor=none;points=[[0,0.5],[1,0.5]];portConstraint=eastwest;fontSize=16;" vertex="1" parent="6zmzIqhys5MrnKEYhRIx-14">
          <mxGeometry y="70" width="240" height="40" as="geometry" />
        </mxCell>
        <mxCell id="6zmzIqhys5MrnKEYhRIx-20" value="" style="shape=partialRectangle;html=1;whiteSpace=wrap;connectable=0;strokeColor=inherit;overflow=hidden;fillColor=none;top=0;left=0;bottom=0;right=0;pointerEvents=1;fontSize=16;" vertex="1" parent="6zmzIqhys5MrnKEYhRIx-19">
          <mxGeometry width="80" height="40" as="geometry">
            <mxRectangle width="80" height="40" as="alternateBounds" />
          </mxGeometry>
        </mxCell>
        <mxCell id="6zmzIqhys5MrnKEYhRIx-21" value="Name" style="shape=partialRectangle;html=1;whiteSpace=wrap;connectable=0;strokeColor=inherit;overflow=hidden;fillColor=none;top=0;left=0;bottom=0;right=0;pointerEvents=1;fontSize=16;" vertex="1" parent="6zmzIqhys5MrnKEYhRIx-19">
          <mxGeometry x="80" width="80" height="40" as="geometry">
            <mxRectangle width="80" height="40" as="alternateBounds" />
          </mxGeometry>
        </mxCell>
        <mxCell id="6zmzIqhys5MrnKEYhRIx-22" value="" style="shape=partialRectangle;html=1;whiteSpace=wrap;connectable=0;strokeColor=inherit;overflow=hidden;fillColor=none;top=0;left=0;bottom=0;right=0;pointerEvents=1;fontSize=16;" vertex="1" parent="6zmzIqhys5MrnKEYhRIx-19">
          <mxGeometry x="160" width="80" height="40" as="geometry">
            <mxRectangle width="80" height="40" as="alternateBounds" />
          </mxGeometry>
        </mxCell>
        <mxCell id="6zmzIqhys5MrnKEYhRIx-23" value="" style="shape=tableRow;horizontal=0;startSize=0;swimlaneHead=0;swimlaneBody=0;strokeColor=inherit;top=0;left=0;bottom=0;right=0;collapsible=0;dropTarget=0;fillColor=none;points=[[0,0.5],[1,0.5]];portConstraint=eastwest;fontSize=16;" vertex="1" parent="6zmzIqhys5MrnKEYhRIx-14">
          <mxGeometry y="110" width="240" height="40" as="geometry" />
        </mxCell>
        <mxCell id="6zmzIqhys5MrnKEYhRIx-24" value="" style="shape=partialRectangle;html=1;whiteSpace=wrap;connectable=0;strokeColor=inherit;overflow=hidden;fillColor=none;top=0;left=0;bottom=0;right=0;pointerEvents=1;fontSize=16;" vertex="1" parent="6zmzIqhys5MrnKEYhRIx-23">
          <mxGeometry width="80" height="40" as="geometry">
            <mxRectangle width="80" height="40" as="alternateBounds" />
          </mxGeometry>
        </mxCell>
        <mxCell id="6zmzIqhys5MrnKEYhRIx-25" value="Biography" style="shape=partialRectangle;html=1;whiteSpace=wrap;connectable=0;strokeColor=inherit;overflow=hidden;fillColor=none;top=0;left=0;bottom=0;right=0;pointerEvents=1;fontSize=16;" vertex="1" parent="6zmzIqhys5MrnKEYhRIx-23">
          <mxGeometry x="80" width="80" height="40" as="geometry">
            <mxRectangle width="80" height="40" as="alternateBounds" />
          </mxGeometry>
        </mxCell>
        <mxCell id="6zmzIqhys5MrnKEYhRIx-26" value="" style="shape=partialRectangle;html=1;whiteSpace=wrap;connectable=0;strokeColor=inherit;overflow=hidden;fillColor=none;top=0;left=0;bottom=0;right=0;pointerEvents=1;fontSize=16;" vertex="1" parent="6zmzIqhys5MrnKEYhRIx-23">
          <mxGeometry x="160" width="80" height="40" as="geometry">
            <mxRectangle width="80" height="40" as="alternateBounds" />
          </mxGeometry>
        </mxCell>
        <mxCell id="6zmzIqhys5MrnKEYhRIx-27" value="Book" style="shape=table;startSize=30;container=1;collapsible=0;childLayout=tableLayout;strokeColor=default;fontSize=16;" vertex="1" parent="1">
          <mxGeometry x="102" y="40" width="292" height="830" as="geometry" />
        </mxCell>
        <mxCell id="6zmzIqhys5MrnKEYhRIx-28" value="" style="shape=tableRow;horizontal=0;startSize=0;swimlaneHead=0;swimlaneBody=0;strokeColor=inherit;top=0;left=0;bottom=0;right=0;collapsible=0;dropTarget=0;fillColor=none;points=[[0,0.5],[1,0.5]];portConstraint=eastwest;fontSize=16;" vertex="1" parent="6zmzIqhys5MrnKEYhRIx-27">
          <mxGeometry y="30" width="292" height="50" as="geometry" />
        </mxCell>
        <mxCell id="6zmzIqhys5MrnKEYhRIx-29" value="PK" style="shape=partialRectangle;html=1;whiteSpace=wrap;connectable=0;strokeColor=inherit;overflow=hidden;fillColor=none;top=0;left=0;bottom=0;right=0;pointerEvents=1;fontSize=16;" vertex="1" parent="6zmzIqhys5MrnKEYhRIx-28">
          <mxGeometry width="60" height="50" as="geometry">
            <mxRectangle width="60" height="50" as="alternateBounds" />
          </mxGeometry>
        </mxCell>
        <mxCell id="6zmzIqhys5MrnKEYhRIx-30" value="Id" style="shape=partialRectangle;html=1;whiteSpace=wrap;connectable=0;strokeColor=inherit;overflow=hidden;fillColor=none;top=0;left=0;bottom=0;right=0;pointerEvents=1;fontSize=16;" vertex="1" parent="6zmzIqhys5MrnKEYhRIx-28">
          <mxGeometry x="60" width="135" height="50" as="geometry">
            <mxRectangle width="135" height="50" as="alternateBounds" />
          </mxGeometry>
        </mxCell>
        <mxCell id="6zmzIqhys5MrnKEYhRIx-31" value="" style="shape=partialRectangle;html=1;whiteSpace=wrap;connectable=0;strokeColor=inherit;overflow=hidden;fillColor=none;top=0;left=0;bottom=0;right=0;pointerEvents=1;fontSize=16;" vertex="1" parent="6zmzIqhys5MrnKEYhRIx-28">
          <mxGeometry x="195" width="97" height="50" as="geometry">
            <mxRectangle width="97" height="50" as="alternateBounds" />
          </mxGeometry>
        </mxCell>
        <mxCell id="6zmzIqhys5MrnKEYhRIx-32" value="" style="shape=tableRow;horizontal=0;startSize=0;swimlaneHead=0;swimlaneBody=0;strokeColor=inherit;top=0;left=0;bottom=0;right=0;collapsible=0;dropTarget=0;fillColor=none;points=[[0,0.5],[1,0.5]];portConstraint=eastwest;fontSize=16;" vertex="1" parent="6zmzIqhys5MrnKEYhRIx-27">
          <mxGeometry y="80" width="292" height="50" as="geometry" />
        </mxCell>
        <mxCell id="6zmzIqhys5MrnKEYhRIx-33" value="" style="shape=partialRectangle;html=1;whiteSpace=wrap;connectable=0;strokeColor=inherit;overflow=hidden;fillColor=none;top=0;left=0;bottom=0;right=0;pointerEvents=1;fontSize=16;" vertex="1" parent="6zmzIqhys5MrnKEYhRIx-32">
          <mxGeometry width="60" height="50" as="geometry">
            <mxRectangle width="60" height="50" as="alternateBounds" />
          </mxGeometry>
        </mxCell>
        <mxCell id="6zmzIqhys5MrnKEYhRIx-34" value="ISBN" style="shape=partialRectangle;html=1;whiteSpace=wrap;connectable=0;strokeColor=inherit;overflow=hidden;fillColor=none;top=0;left=0;bottom=0;right=0;pointerEvents=1;fontSize=16;" vertex="1" parent="6zmzIqhys5MrnKEYhRIx-32">
          <mxGeometry x="60" width="135" height="50" as="geometry">
            <mxRectangle width="135" height="50" as="alternateBounds" />
          </mxGeometry>
        </mxCell>
        <mxCell id="6zmzIqhys5MrnKEYhRIx-35" value="" style="shape=partialRectangle;html=1;whiteSpace=wrap;connectable=0;strokeColor=inherit;overflow=hidden;fillColor=none;top=0;left=0;bottom=0;right=0;pointerEvents=1;fontSize=16;" vertex="1" parent="6zmzIqhys5MrnKEYhRIx-32">
          <mxGeometry x="195" width="97" height="50" as="geometry">
            <mxRectangle width="97" height="50" as="alternateBounds" />
          </mxGeometry>
        </mxCell>
        <mxCell id="HHqZ7CV405lhOF_aumGg-67" style="shape=tableRow;horizontal=0;startSize=0;swimlaneHead=0;swimlaneBody=0;strokeColor=inherit;top=0;left=0;bottom=0;right=0;collapsible=0;dropTarget=0;fillColor=none;points=[[0,0.5],[1,0.5]];portConstraint=eastwest;fontSize=16;" vertex="1" parent="6zmzIqhys5MrnKEYhRIx-27">
          <mxGeometry y="130" width="292" height="50" as="geometry" />
        </mxCell>
        <mxCell id="HHqZ7CV405lhOF_aumGg-68" style="shape=partialRectangle;html=1;whiteSpace=wrap;connectable=0;strokeColor=inherit;overflow=hidden;fillColor=none;top=0;left=0;bottom=0;right=0;pointerEvents=1;fontSize=16;" vertex="1" parent="HHqZ7CV405lhOF_aumGg-67">
          <mxGeometry width="60" height="50" as="geometry">
            <mxRectangle width="60" height="50" as="alternateBounds" />
          </mxGeometry>
        </mxCell>
        <mxCell id="HHqZ7CV405lhOF_aumGg-69" value="Title" style="shape=partialRectangle;html=1;whiteSpace=wrap;connectable=0;strokeColor=inherit;overflow=hidden;fillColor=none;top=0;left=0;bottom=0;right=0;pointerEvents=1;fontSize=16;" vertex="1" parent="HHqZ7CV405lhOF_aumGg-67">
          <mxGeometry x="60" width="135" height="50" as="geometry">
            <mxRectangle width="135" height="50" as="alternateBounds" />
          </mxGeometry>
        </mxCell>
        <mxCell id="HHqZ7CV405lhOF_aumGg-70" style="shape=partialRectangle;html=1;whiteSpace=wrap;connectable=0;strokeColor=inherit;overflow=hidden;fillColor=none;top=0;left=0;bottom=0;right=0;pointerEvents=1;fontSize=16;" vertex="1" parent="HHqZ7CV405lhOF_aumGg-67">
          <mxGeometry x="195" width="97" height="50" as="geometry">
            <mxRectangle width="97" height="50" as="alternateBounds" />
          </mxGeometry>
        </mxCell>
        <mxCell id="6zmzIqhys5MrnKEYhRIx-36" value="" style="shape=tableRow;horizontal=0;startSize=0;swimlaneHead=0;swimlaneBody=0;strokeColor=inherit;top=0;left=0;bottom=0;right=0;collapsible=0;dropTarget=0;fillColor=none;points=[[0,0.5],[1,0.5]];portConstraint=eastwest;fontSize=16;" vertex="1" parent="6zmzIqhys5MrnKEYhRIx-27">
          <mxGeometry y="180" width="292" height="50" as="geometry" />
        </mxCell>
        <mxCell id="6zmzIqhys5MrnKEYhRIx-37" value="" style="shape=partialRectangle;html=1;whiteSpace=wrap;connectable=0;strokeColor=inherit;overflow=hidden;fillColor=none;top=0;left=0;bottom=0;right=0;pointerEvents=1;fontSize=16;" vertex="1" parent="6zmzIqhys5MrnKEYhRIx-36">
          <mxGeometry width="60" height="50" as="geometry">
            <mxRectangle width="60" height="50" as="alternateBounds" />
          </mxGeometry>
        </mxCell>
        <mxCell id="6zmzIqhys5MrnKEYhRIx-38" value="Publisher" style="shape=partialRectangle;html=1;whiteSpace=wrap;connectable=0;strokeColor=inherit;overflow=hidden;fillColor=none;top=0;left=0;bottom=0;right=0;pointerEvents=1;fontSize=16;" vertex="1" parent="6zmzIqhys5MrnKEYhRIx-36">
          <mxGeometry x="60" width="135" height="50" as="geometry">
            <mxRectangle width="135" height="50" as="alternateBounds" />
          </mxGeometry>
        </mxCell>
        <mxCell id="6zmzIqhys5MrnKEYhRIx-39" value="" style="shape=partialRectangle;html=1;whiteSpace=wrap;connectable=0;strokeColor=inherit;overflow=hidden;fillColor=none;top=0;left=0;bottom=0;right=0;pointerEvents=1;fontSize=16;" vertex="1" parent="6zmzIqhys5MrnKEYhRIx-36">
          <mxGeometry x="195" width="97" height="50" as="geometry">
            <mxRectangle width="97" height="50" as="alternateBounds" />
          </mxGeometry>
        </mxCell>
        <mxCell id="HHqZ7CV405lhOF_aumGg-71" style="shape=tableRow;horizontal=0;startSize=0;swimlaneHead=0;swimlaneBody=0;strokeColor=inherit;top=0;left=0;bottom=0;right=0;collapsible=0;dropTarget=0;fillColor=none;points=[[0,0.5],[1,0.5]];portConstraint=eastwest;fontSize=16;" vertex="1" parent="6zmzIqhys5MrnKEYhRIx-27">
          <mxGeometry y="230" width="292" height="50" as="geometry" />
        </mxCell>
        <mxCell id="HHqZ7CV405lhOF_aumGg-72" value="FK" style="shape=partialRectangle;html=1;whiteSpace=wrap;connectable=0;strokeColor=inherit;overflow=hidden;fillColor=none;top=0;left=0;bottom=0;right=0;pointerEvents=1;fontSize=16;" vertex="1" parent="HHqZ7CV405lhOF_aumGg-71">
          <mxGeometry width="60" height="50" as="geometry">
            <mxRectangle width="60" height="50" as="alternateBounds" />
          </mxGeometry>
        </mxCell>
        <mxCell id="HHqZ7CV405lhOF_aumGg-73" value="AuthorId" style="shape=partialRectangle;html=1;whiteSpace=wrap;connectable=0;strokeColor=inherit;overflow=hidden;fillColor=none;top=0;left=0;bottom=0;right=0;pointerEvents=1;fontSize=16;" vertex="1" parent="HHqZ7CV405lhOF_aumGg-71">
          <mxGeometry x="60" width="135" height="50" as="geometry">
            <mxRectangle width="135" height="50" as="alternateBounds" />
          </mxGeometry>
        </mxCell>
        <mxCell id="HHqZ7CV405lhOF_aumGg-74" style="shape=partialRectangle;html=1;whiteSpace=wrap;connectable=0;strokeColor=inherit;overflow=hidden;fillColor=none;top=0;left=0;bottom=0;right=0;pointerEvents=1;fontSize=16;" vertex="1" parent="HHqZ7CV405lhOF_aumGg-71">
          <mxGeometry x="195" width="97" height="50" as="geometry">
            <mxRectangle width="97" height="50" as="alternateBounds" />
          </mxGeometry>
        </mxCell>
        <mxCell id="HHqZ7CV405lhOF_aumGg-75" style="shape=tableRow;horizontal=0;startSize=0;swimlaneHead=0;swimlaneBody=0;strokeColor=inherit;top=0;left=0;bottom=0;right=0;collapsible=0;dropTarget=0;fillColor=none;points=[[0,0.5],[1,0.5]];portConstraint=eastwest;fontSize=16;" vertex="1" parent="6zmzIqhys5MrnKEYhRIx-27">
          <mxGeometry y="280" width="292" height="50" as="geometry" />
        </mxCell>
        <mxCell id="HHqZ7CV405lhOF_aumGg-76" style="shape=partialRectangle;html=1;whiteSpace=wrap;connectable=0;strokeColor=inherit;overflow=hidden;fillColor=none;top=0;left=0;bottom=0;right=0;pointerEvents=1;fontSize=16;" vertex="1" parent="HHqZ7CV405lhOF_aumGg-75">
          <mxGeometry width="60" height="50" as="geometry">
            <mxRectangle width="60" height="50" as="alternateBounds" />
          </mxGeometry>
        </mxCell>
        <mxCell id="HHqZ7CV405lhOF_aumGg-77" value="PublicationDate" style="shape=partialRectangle;html=1;whiteSpace=wrap;connectable=0;strokeColor=inherit;overflow=hidden;fillColor=none;top=0;left=0;bottom=0;right=0;pointerEvents=1;fontSize=16;" vertex="1" parent="HHqZ7CV405lhOF_aumGg-75">
          <mxGeometry x="60" width="135" height="50" as="geometry">
            <mxRectangle width="135" height="50" as="alternateBounds" />
          </mxGeometry>
        </mxCell>
        <mxCell id="HHqZ7CV405lhOF_aumGg-78" style="shape=partialRectangle;html=1;whiteSpace=wrap;connectable=0;strokeColor=inherit;overflow=hidden;fillColor=none;top=0;left=0;bottom=0;right=0;pointerEvents=1;fontSize=16;" vertex="1" parent="HHqZ7CV405lhOF_aumGg-75">
          <mxGeometry x="195" width="97" height="50" as="geometry">
            <mxRectangle width="97" height="50" as="alternateBounds" />
          </mxGeometry>
        </mxCell>
        <mxCell id="HHqZ7CV405lhOF_aumGg-79" style="shape=tableRow;horizontal=0;startSize=0;swimlaneHead=0;swimlaneBody=0;strokeColor=inherit;top=0;left=0;bottom=0;right=0;collapsible=0;dropTarget=0;fillColor=none;points=[[0,0.5],[1,0.5]];portConstraint=eastwest;fontSize=16;" vertex="1" parent="6zmzIqhys5MrnKEYhRIx-27">
          <mxGeometry y="330" width="292" height="50" as="geometry" />
        </mxCell>
        <mxCell id="HHqZ7CV405lhOF_aumGg-80" style="shape=partialRectangle;html=1;whiteSpace=wrap;connectable=0;strokeColor=inherit;overflow=hidden;fillColor=none;top=0;left=0;bottom=0;right=0;pointerEvents=1;fontSize=16;" vertex="1" parent="HHqZ7CV405lhOF_aumGg-79">
          <mxGeometry width="60" height="50" as="geometry">
            <mxRectangle width="60" height="50" as="alternateBounds" />
          </mxGeometry>
        </mxCell>
        <mxCell id="HHqZ7CV405lhOF_aumGg-81" value="Genre" style="shape=partialRectangle;html=1;whiteSpace=wrap;connectable=0;strokeColor=inherit;overflow=hidden;fillColor=none;top=0;left=0;bottom=0;right=0;pointerEvents=1;fontSize=16;" vertex="1" parent="HHqZ7CV405lhOF_aumGg-79">
          <mxGeometry x="60" width="135" height="50" as="geometry">
            <mxRectangle width="135" height="50" as="alternateBounds" />
          </mxGeometry>
        </mxCell>
        <mxCell id="HHqZ7CV405lhOF_aumGg-82" style="shape=partialRectangle;html=1;whiteSpace=wrap;connectable=0;strokeColor=inherit;overflow=hidden;fillColor=none;top=0;left=0;bottom=0;right=0;pointerEvents=1;fontSize=16;" vertex="1" parent="HHqZ7CV405lhOF_aumGg-79">
          <mxGeometry x="195" width="97" height="50" as="geometry">
            <mxRectangle width="97" height="50" as="alternateBounds" />
          </mxGeometry>
        </mxCell>
        <mxCell id="HHqZ7CV405lhOF_aumGg-83" style="shape=tableRow;horizontal=0;startSize=0;swimlaneHead=0;swimlaneBody=0;strokeColor=inherit;top=0;left=0;bottom=0;right=0;collapsible=0;dropTarget=0;fillColor=none;points=[[0,0.5],[1,0.5]];portConstraint=eastwest;fontSize=16;" vertex="1" parent="6zmzIqhys5MrnKEYhRIx-27">
          <mxGeometry y="380" width="292" height="50" as="geometry" />
        </mxCell>
        <mxCell id="HHqZ7CV405lhOF_aumGg-84" style="shape=partialRectangle;html=1;whiteSpace=wrap;connectable=0;strokeColor=inherit;overflow=hidden;fillColor=none;top=0;left=0;bottom=0;right=0;pointerEvents=1;fontSize=16;" vertex="1" parent="HHqZ7CV405lhOF_aumGg-83">
          <mxGeometry width="60" height="50" as="geometry">
            <mxRectangle width="60" height="50" as="alternateBounds" />
          </mxGeometry>
        </mxCell>
        <mxCell id="HHqZ7CV405lhOF_aumGg-85" value="Description" style="shape=partialRectangle;html=1;whiteSpace=wrap;connectable=0;strokeColor=inherit;overflow=hidden;fillColor=none;top=0;left=0;bottom=0;right=0;pointerEvents=1;fontSize=16;" vertex="1" parent="HHqZ7CV405lhOF_aumGg-83">
          <mxGeometry x="60" width="135" height="50" as="geometry">
            <mxRectangle width="135" height="50" as="alternateBounds" />
          </mxGeometry>
        </mxCell>
        <mxCell id="HHqZ7CV405lhOF_aumGg-86" style="shape=partialRectangle;html=1;whiteSpace=wrap;connectable=0;strokeColor=inherit;overflow=hidden;fillColor=none;top=0;left=0;bottom=0;right=0;pointerEvents=1;fontSize=16;" vertex="1" parent="HHqZ7CV405lhOF_aumGg-83">
          <mxGeometry x="195" width="97" height="50" as="geometry">
            <mxRectangle width="97" height="50" as="alternateBounds" />
          </mxGeometry>
        </mxCell>
        <mxCell id="HHqZ7CV405lhOF_aumGg-87" style="shape=tableRow;horizontal=0;startSize=0;swimlaneHead=0;swimlaneBody=0;strokeColor=inherit;top=0;left=0;bottom=0;right=0;collapsible=0;dropTarget=0;fillColor=none;points=[[0,0.5],[1,0.5]];portConstraint=eastwest;fontSize=16;" vertex="1" parent="6zmzIqhys5MrnKEYhRIx-27">
          <mxGeometry y="430" width="292" height="50" as="geometry" />
        </mxCell>
        <mxCell id="HHqZ7CV405lhOF_aumGg-88" style="shape=partialRectangle;html=1;whiteSpace=wrap;connectable=0;strokeColor=inherit;overflow=hidden;fillColor=none;top=0;left=0;bottom=0;right=0;pointerEvents=1;fontSize=16;" vertex="1" parent="HHqZ7CV405lhOF_aumGg-87">
          <mxGeometry width="60" height="50" as="geometry">
            <mxRectangle width="60" height="50" as="alternateBounds" />
          </mxGeometry>
        </mxCell>
        <mxCell id="HHqZ7CV405lhOF_aumGg-89" value="Language" style="shape=partialRectangle;html=1;whiteSpace=wrap;connectable=0;strokeColor=inherit;overflow=hidden;fillColor=none;top=0;left=0;bottom=0;right=0;pointerEvents=1;fontSize=16;" vertex="1" parent="HHqZ7CV405lhOF_aumGg-87">
          <mxGeometry x="60" width="135" height="50" as="geometry">
            <mxRectangle width="135" height="50" as="alternateBounds" />
          </mxGeometry>
        </mxCell>
        <mxCell id="HHqZ7CV405lhOF_aumGg-90" style="shape=partialRectangle;html=1;whiteSpace=wrap;connectable=0;strokeColor=inherit;overflow=hidden;fillColor=none;top=0;left=0;bottom=0;right=0;pointerEvents=1;fontSize=16;" vertex="1" parent="HHqZ7CV405lhOF_aumGg-87">
          <mxGeometry x="195" width="97" height="50" as="geometry">
            <mxRectangle width="97" height="50" as="alternateBounds" />
          </mxGeometry>
        </mxCell>
        <mxCell id="HHqZ7CV405lhOF_aumGg-91" style="shape=tableRow;horizontal=0;startSize=0;swimlaneHead=0;swimlaneBody=0;strokeColor=inherit;top=0;left=0;bottom=0;right=0;collapsible=0;dropTarget=0;fillColor=none;points=[[0,0.5],[1,0.5]];portConstraint=eastwest;fontSize=16;" vertex="1" parent="6zmzIqhys5MrnKEYhRIx-27">
          <mxGeometry y="480" width="292" height="50" as="geometry" />
        </mxCell>
        <mxCell id="HHqZ7CV405lhOF_aumGg-92" style="shape=partialRectangle;html=1;whiteSpace=wrap;connectable=0;strokeColor=inherit;overflow=hidden;fillColor=none;top=0;left=0;bottom=0;right=0;pointerEvents=1;fontSize=16;" vertex="1" parent="HHqZ7CV405lhOF_aumGg-91">
          <mxGeometry width="60" height="50" as="geometry">
            <mxRectangle width="60" height="50" as="alternateBounds" />
          </mxGeometry>
        </mxCell>
        <mxCell id="HHqZ7CV405lhOF_aumGg-93" value="Price" style="shape=partialRectangle;html=1;whiteSpace=wrap;connectable=0;strokeColor=inherit;overflow=hidden;fillColor=none;top=0;left=0;bottom=0;right=0;pointerEvents=1;fontSize=16;" vertex="1" parent="HHqZ7CV405lhOF_aumGg-91">
          <mxGeometry x="60" width="135" height="50" as="geometry">
            <mxRectangle width="135" height="50" as="alternateBounds" />
          </mxGeometry>
        </mxCell>
        <mxCell id="HHqZ7CV405lhOF_aumGg-94" style="shape=partialRectangle;html=1;whiteSpace=wrap;connectable=0;strokeColor=inherit;overflow=hidden;fillColor=none;top=0;left=0;bottom=0;right=0;pointerEvents=1;fontSize=16;" vertex="1" parent="HHqZ7CV405lhOF_aumGg-91">
          <mxGeometry x="195" width="97" height="50" as="geometry">
            <mxRectangle width="97" height="50" as="alternateBounds" />
          </mxGeometry>
        </mxCell>
        <mxCell id="HHqZ7CV405lhOF_aumGg-95" style="shape=tableRow;horizontal=0;startSize=0;swimlaneHead=0;swimlaneBody=0;strokeColor=inherit;top=0;left=0;bottom=0;right=0;collapsible=0;dropTarget=0;fillColor=none;points=[[0,0.5],[1,0.5]];portConstraint=eastwest;fontSize=16;" vertex="1" parent="6zmzIqhys5MrnKEYhRIx-27">
          <mxGeometry y="530" width="292" height="50" as="geometry" />
        </mxCell>
        <mxCell id="HHqZ7CV405lhOF_aumGg-96" style="shape=partialRectangle;html=1;whiteSpace=wrap;connectable=0;strokeColor=inherit;overflow=hidden;fillColor=none;top=0;left=0;bottom=0;right=0;pointerEvents=1;fontSize=16;" vertex="1" parent="HHqZ7CV405lhOF_aumGg-95">
          <mxGeometry width="60" height="50" as="geometry">
            <mxRectangle width="60" height="50" as="alternateBounds" />
          </mxGeometry>
        </mxCell>
        <mxCell id="HHqZ7CV405lhOF_aumGg-97" value="Pages" style="shape=partialRectangle;html=1;whiteSpace=wrap;connectable=0;strokeColor=inherit;overflow=hidden;fillColor=none;top=0;left=0;bottom=0;right=0;pointerEvents=1;fontSize=16;" vertex="1" parent="HHqZ7CV405lhOF_aumGg-95">
          <mxGeometry x="60" width="135" height="50" as="geometry">
            <mxRectangle width="135" height="50" as="alternateBounds" />
          </mxGeometry>
        </mxCell>
        <mxCell id="HHqZ7CV405lhOF_aumGg-98" style="shape=partialRectangle;html=1;whiteSpace=wrap;connectable=0;strokeColor=inherit;overflow=hidden;fillColor=none;top=0;left=0;bottom=0;right=0;pointerEvents=1;fontSize=16;" vertex="1" parent="HHqZ7CV405lhOF_aumGg-95">
          <mxGeometry x="195" width="97" height="50" as="geometry">
            <mxRectangle width="97" height="50" as="alternateBounds" />
          </mxGeometry>
        </mxCell>
        <mxCell id="HHqZ7CV405lhOF_aumGg-99" style="shape=tableRow;horizontal=0;startSize=0;swimlaneHead=0;swimlaneBody=0;strokeColor=inherit;top=0;left=0;bottom=0;right=0;collapsible=0;dropTarget=0;fillColor=none;points=[[0,0.5],[1,0.5]];portConstraint=eastwest;fontSize=16;" vertex="1" parent="6zmzIqhys5MrnKEYhRIx-27">
          <mxGeometry y="580" width="292" height="50" as="geometry" />
        </mxCell>
        <mxCell id="HHqZ7CV405lhOF_aumGg-100" style="shape=partialRectangle;html=1;whiteSpace=wrap;connectable=0;strokeColor=inherit;overflow=hidden;fillColor=none;top=0;left=0;bottom=0;right=0;pointerEvents=1;fontSize=16;" vertex="1" parent="HHqZ7CV405lhOF_aumGg-99">
          <mxGeometry width="60" height="50" as="geometry">
            <mxRectangle width="60" height="50" as="alternateBounds" />
          </mxGeometry>
        </mxCell>
        <mxCell id="HHqZ7CV405lhOF_aumGg-101" value="CoverType" style="shape=partialRectangle;html=1;whiteSpace=wrap;connectable=0;strokeColor=inherit;overflow=hidden;fillColor=none;top=0;left=0;bottom=0;right=0;pointerEvents=1;fontSize=16;" vertex="1" parent="HHqZ7CV405lhOF_aumGg-99">
          <mxGeometry x="60" width="135" height="50" as="geometry">
            <mxRectangle width="135" height="50" as="alternateBounds" />
          </mxGeometry>
        </mxCell>
        <mxCell id="HHqZ7CV405lhOF_aumGg-102" style="shape=partialRectangle;html=1;whiteSpace=wrap;connectable=0;strokeColor=inherit;overflow=hidden;fillColor=none;top=0;left=0;bottom=0;right=0;pointerEvents=1;fontSize=16;" vertex="1" parent="HHqZ7CV405lhOF_aumGg-99">
          <mxGeometry x="195" width="97" height="50" as="geometry">
            <mxRectangle width="97" height="50" as="alternateBounds" />
          </mxGeometry>
        </mxCell>
        <mxCell id="HHqZ7CV405lhOF_aumGg-103" style="shape=tableRow;horizontal=0;startSize=0;swimlaneHead=0;swimlaneBody=0;strokeColor=inherit;top=0;left=0;bottom=0;right=0;collapsible=0;dropTarget=0;fillColor=none;points=[[0,0.5],[1,0.5]];portConstraint=eastwest;fontSize=16;" vertex="1" parent="6zmzIqhys5MrnKEYhRIx-27">
          <mxGeometry y="630" width="292" height="50" as="geometry" />
        </mxCell>
        <mxCell id="HHqZ7CV405lhOF_aumGg-104" style="shape=partialRectangle;html=1;whiteSpace=wrap;connectable=0;strokeColor=inherit;overflow=hidden;fillColor=none;top=0;left=0;bottom=0;right=0;pointerEvents=1;fontSize=16;" vertex="1" parent="HHqZ7CV405lhOF_aumGg-103">
          <mxGeometry width="60" height="50" as="geometry">
            <mxRectangle width="60" height="50" as="alternateBounds" />
          </mxGeometry>
        </mxCell>
        <mxCell id="HHqZ7CV405lhOF_aumGg-105" value="Weight" style="shape=partialRectangle;html=1;whiteSpace=wrap;connectable=0;strokeColor=inherit;overflow=hidden;fillColor=none;top=0;left=0;bottom=0;right=0;pointerEvents=1;fontSize=16;" vertex="1" parent="HHqZ7CV405lhOF_aumGg-103">
          <mxGeometry x="60" width="135" height="50" as="geometry">
            <mxRectangle width="135" height="50" as="alternateBounds" />
          </mxGeometry>
        </mxCell>
        <mxCell id="HHqZ7CV405lhOF_aumGg-106" style="shape=partialRectangle;html=1;whiteSpace=wrap;connectable=0;strokeColor=inherit;overflow=hidden;fillColor=none;top=0;left=0;bottom=0;right=0;pointerEvents=1;fontSize=16;" vertex="1" parent="HHqZ7CV405lhOF_aumGg-103">
          <mxGeometry x="195" width="97" height="50" as="geometry">
            <mxRectangle width="97" height="50" as="alternateBounds" />
          </mxGeometry>
        </mxCell>
        <mxCell id="HHqZ7CV405lhOF_aumGg-107" style="shape=tableRow;horizontal=0;startSize=0;swimlaneHead=0;swimlaneBody=0;strokeColor=inherit;top=0;left=0;bottom=0;right=0;collapsible=0;dropTarget=0;fillColor=none;points=[[0,0.5],[1,0.5]];portConstraint=eastwest;fontSize=16;" vertex="1" parent="6zmzIqhys5MrnKEYhRIx-27">
          <mxGeometry y="680" width="292" height="50" as="geometry" />
        </mxCell>
        <mxCell id="HHqZ7CV405lhOF_aumGg-108" style="shape=partialRectangle;html=1;whiteSpace=wrap;connectable=0;strokeColor=inherit;overflow=hidden;fillColor=none;top=0;left=0;bottom=0;right=0;pointerEvents=1;fontSize=16;" vertex="1" parent="HHqZ7CV405lhOF_aumGg-107">
          <mxGeometry width="60" height="50" as="geometry">
            <mxRectangle width="60" height="50" as="alternateBounds" />
          </mxGeometry>
        </mxCell>
        <mxCell id="HHqZ7CV405lhOF_aumGg-109" value="Rating" style="shape=partialRectangle;html=1;whiteSpace=wrap;connectable=0;strokeColor=inherit;overflow=hidden;fillColor=none;top=0;left=0;bottom=0;right=0;pointerEvents=1;fontSize=16;" vertex="1" parent="HHqZ7CV405lhOF_aumGg-107">
          <mxGeometry x="60" width="135" height="50" as="geometry">
            <mxRectangle width="135" height="50" as="alternateBounds" />
          </mxGeometry>
        </mxCell>
        <mxCell id="HHqZ7CV405lhOF_aumGg-110" style="shape=partialRectangle;html=1;whiteSpace=wrap;connectable=0;strokeColor=inherit;overflow=hidden;fillColor=none;top=0;left=0;bottom=0;right=0;pointerEvents=1;fontSize=16;" vertex="1" parent="HHqZ7CV405lhOF_aumGg-107">
          <mxGeometry x="195" width="97" height="50" as="geometry">
            <mxRectangle width="97" height="50" as="alternateBounds" />
          </mxGeometry>
        </mxCell>
        <mxCell id="HHqZ7CV405lhOF_aumGg-111" style="shape=tableRow;horizontal=0;startSize=0;swimlaneHead=0;swimlaneBody=0;strokeColor=inherit;top=0;left=0;bottom=0;right=0;collapsible=0;dropTarget=0;fillColor=none;points=[[0,0.5],[1,0.5]];portConstraint=eastwest;fontSize=16;" vertex="1" parent="6zmzIqhys5MrnKEYhRIx-27">
          <mxGeometry y="730" width="292" height="50" as="geometry" />
        </mxCell>
        <mxCell id="HHqZ7CV405lhOF_aumGg-112" style="shape=partialRectangle;html=1;whiteSpace=wrap;connectable=0;strokeColor=inherit;overflow=hidden;fillColor=none;top=0;left=0;bottom=0;right=0;pointerEvents=1;fontSize=16;" vertex="1" parent="HHqZ7CV405lhOF_aumGg-111">
          <mxGeometry width="60" height="50" as="geometry">
            <mxRectangle width="60" height="50" as="alternateBounds" />
          </mxGeometry>
        </mxCell>
        <mxCell id="HHqZ7CV405lhOF_aumGg-113" value="ImageUrl" style="shape=partialRectangle;html=1;whiteSpace=wrap;connectable=0;strokeColor=inherit;overflow=hidden;fillColor=none;top=0;left=0;bottom=0;right=0;pointerEvents=1;fontSize=16;" vertex="1" parent="HHqZ7CV405lhOF_aumGg-111">
          <mxGeometry x="60" width="135" height="50" as="geometry">
            <mxRectangle width="135" height="50" as="alternateBounds" />
          </mxGeometry>
        </mxCell>
        <mxCell id="HHqZ7CV405lhOF_aumGg-114" style="shape=partialRectangle;html=1;whiteSpace=wrap;connectable=0;strokeColor=inherit;overflow=hidden;fillColor=none;top=0;left=0;bottom=0;right=0;pointerEvents=1;fontSize=16;" vertex="1" parent="HHqZ7CV405lhOF_aumGg-111">
          <mxGeometry x="195" width="97" height="50" as="geometry">
            <mxRectangle width="97" height="50" as="alternateBounds" />
          </mxGeometry>
        </mxCell>
        <mxCell id="HHqZ7CV405lhOF_aumGg-115" style="shape=tableRow;horizontal=0;startSize=0;swimlaneHead=0;swimlaneBody=0;strokeColor=inherit;top=0;left=0;bottom=0;right=0;collapsible=0;dropTarget=0;fillColor=none;points=[[0,0.5],[1,0.5]];portConstraint=eastwest;fontSize=16;" vertex="1" parent="6zmzIqhys5MrnKEYhRIx-27">
          <mxGeometry y="780" width="292" height="50" as="geometry" />
        </mxCell>
        <mxCell id="HHqZ7CV405lhOF_aumGg-116" value="FK" style="shape=partialRectangle;html=1;whiteSpace=wrap;connectable=0;strokeColor=inherit;overflow=hidden;fillColor=none;top=0;left=0;bottom=0;right=0;pointerEvents=1;fontSize=16;" vertex="1" parent="HHqZ7CV405lhOF_aumGg-115">
          <mxGeometry width="60" height="50" as="geometry">
            <mxRectangle width="60" height="50" as="alternateBounds" />
          </mxGeometry>
        </mxCell>
        <mxCell id="HHqZ7CV405lhOF_aumGg-117" value="CategoryId" style="shape=partialRectangle;html=1;whiteSpace=wrap;connectable=0;strokeColor=inherit;overflow=hidden;fillColor=none;top=0;left=0;bottom=0;right=0;pointerEvents=1;fontSize=16;" vertex="1" parent="HHqZ7CV405lhOF_aumGg-115">
          <mxGeometry x="60" width="135" height="50" as="geometry">
            <mxRectangle width="135" height="50" as="alternateBounds" />
          </mxGeometry>
        </mxCell>
        <mxCell id="HHqZ7CV405lhOF_aumGg-118" style="shape=partialRectangle;html=1;whiteSpace=wrap;connectable=0;strokeColor=inherit;overflow=hidden;fillColor=none;top=0;left=0;bottom=0;right=0;pointerEvents=1;fontSize=16;" vertex="1" parent="HHqZ7CV405lhOF_aumGg-115">
          <mxGeometry x="195" width="97" height="50" as="geometry">
            <mxRectangle width="97" height="50" as="alternateBounds" />
          </mxGeometry>
        </mxCell>
        <mxCell id="YadOb3yuFkTUJ-2XDMgP-1" value="Category" style="shape=table;startSize=30;container=1;collapsible=0;childLayout=tableLayout;strokeColor=default;fontSize=16;" vertex="1" parent="1">
          <mxGeometry x="490" y="260" width="240" height="110" as="geometry" />
        </mxCell>
        <mxCell id="YadOb3yuFkTUJ-2XDMgP-2" value="" style="shape=tableRow;horizontal=0;startSize=0;swimlaneHead=0;swimlaneBody=0;strokeColor=inherit;top=0;left=0;bottom=0;right=0;collapsible=0;dropTarget=0;fillColor=none;points=[[0,0.5],[1,0.5]];portConstraint=eastwest;fontSize=16;" vertex="1" parent="YadOb3yuFkTUJ-2XDMgP-1">
          <mxGeometry y="30" width="240" height="40" as="geometry" />
        </mxCell>
        <mxCell id="YadOb3yuFkTUJ-2XDMgP-3" value="PK" style="shape=partialRectangle;html=1;whiteSpace=wrap;connectable=0;strokeColor=inherit;overflow=hidden;fillColor=none;top=0;left=0;bottom=0;right=0;pointerEvents=1;fontSize=16;" vertex="1" parent="YadOb3yuFkTUJ-2XDMgP-2">
          <mxGeometry width="80" height="40" as="geometry">
            <mxRectangle width="80" height="40" as="alternateBounds" />
          </mxGeometry>
        </mxCell>
        <mxCell id="YadOb3yuFkTUJ-2XDMgP-4" value="Id" style="shape=partialRectangle;html=1;whiteSpace=wrap;connectable=0;strokeColor=inherit;overflow=hidden;fillColor=none;top=0;left=0;bottom=0;right=0;pointerEvents=1;fontSize=16;" vertex="1" parent="YadOb3yuFkTUJ-2XDMgP-2">
          <mxGeometry x="80" width="80" height="40" as="geometry">
            <mxRectangle width="80" height="40" as="alternateBounds" />
          </mxGeometry>
        </mxCell>
        <mxCell id="YadOb3yuFkTUJ-2XDMgP-5" value="" style="shape=partialRectangle;html=1;whiteSpace=wrap;connectable=0;strokeColor=inherit;overflow=hidden;fillColor=none;top=0;left=0;bottom=0;right=0;pointerEvents=1;fontSize=16;" vertex="1" parent="YadOb3yuFkTUJ-2XDMgP-2">
          <mxGeometry x="160" width="80" height="40" as="geometry">
            <mxRectangle width="80" height="40" as="alternateBounds" />
          </mxGeometry>
        </mxCell>
        <mxCell id="YadOb3yuFkTUJ-2XDMgP-6" value="" style="shape=tableRow;horizontal=0;startSize=0;swimlaneHead=0;swimlaneBody=0;strokeColor=inherit;top=0;left=0;bottom=0;right=0;collapsible=0;dropTarget=0;fillColor=none;points=[[0,0.5],[1,0.5]];portConstraint=eastwest;fontSize=16;" vertex="1" parent="YadOb3yuFkTUJ-2XDMgP-1">
          <mxGeometry y="70" width="240" height="40" as="geometry" />
        </mxCell>
        <mxCell id="YadOb3yuFkTUJ-2XDMgP-7" value="" style="shape=partialRectangle;html=1;whiteSpace=wrap;connectable=0;strokeColor=inherit;overflow=hidden;fillColor=none;top=0;left=0;bottom=0;right=0;pointerEvents=1;fontSize=16;" vertex="1" parent="YadOb3yuFkTUJ-2XDMgP-6">
          <mxGeometry width="80" height="40" as="geometry">
            <mxRectangle width="80" height="40" as="alternateBounds" />
          </mxGeometry>
        </mxCell>
        <mxCell id="YadOb3yuFkTUJ-2XDMgP-8" value="Name" style="shape=partialRectangle;html=1;whiteSpace=wrap;connectable=0;strokeColor=inherit;overflow=hidden;fillColor=none;top=0;left=0;bottom=0;right=0;pointerEvents=1;fontSize=16;" vertex="1" parent="YadOb3yuFkTUJ-2XDMgP-6">
          <mxGeometry x="80" width="80" height="40" as="geometry">
            <mxRectangle width="80" height="40" as="alternateBounds" />
          </mxGeometry>
        </mxCell>
        <mxCell id="YadOb3yuFkTUJ-2XDMgP-9" value="" style="shape=partialRectangle;html=1;whiteSpace=wrap;connectable=0;strokeColor=inherit;overflow=hidden;fillColor=none;top=0;left=0;bottom=0;right=0;pointerEvents=1;fontSize=16;" vertex="1" parent="YadOb3yuFkTUJ-2XDMgP-6">
          <mxGeometry x="160" width="80" height="40" as="geometry">
            <mxRectangle width="80" height="40" as="alternateBounds" />
          </mxGeometry>
        </mxCell>
        <mxCell id="WUvIe7gKCcy0REttWwDI-1" value="BookAuthor" style="shape=table;startSize=30;container=1;collapsible=0;childLayout=tableLayout;strokeColor=default;fontSize=16;" vertex="1" parent="1">
          <mxGeometry x="-240" y="70" width="240" height="110" as="geometry" />
        </mxCell>
        <mxCell id="WUvIe7gKCcy0REttWwDI-2" value="" style="shape=tableRow;horizontal=0;startSize=0;swimlaneHead=0;swimlaneBody=0;strokeColor=inherit;top=0;left=0;bottom=0;right=0;collapsible=0;dropTarget=0;fillColor=none;points=[[0,0.5],[1,0.5]];portConstraint=eastwest;fontSize=16;" vertex="1" parent="WUvIe7gKCcy0REttWwDI-1">
          <mxGeometry y="30" width="240" height="40" as="geometry" />
        </mxCell>
        <mxCell id="WUvIe7gKCcy0REttWwDI-3" value="FK" style="shape=partialRectangle;html=1;whiteSpace=wrap;connectable=0;strokeColor=inherit;overflow=hidden;fillColor=none;top=0;left=0;bottom=0;right=0;pointerEvents=1;fontSize=16;" vertex="1" parent="WUvIe7gKCcy0REttWwDI-2">
          <mxGeometry width="80" height="40" as="geometry">
            <mxRectangle width="80" height="40" as="alternateBounds" />
          </mxGeometry>
        </mxCell>
        <mxCell id="WUvIe7gKCcy0REttWwDI-4" value="BookId" style="shape=partialRectangle;html=1;whiteSpace=wrap;connectable=0;strokeColor=inherit;overflow=hidden;fillColor=none;top=0;left=0;bottom=0;right=0;pointerEvents=1;fontSize=16;" vertex="1" parent="WUvIe7gKCcy0REttWwDI-2">
          <mxGeometry x="80" width="110" height="40" as="geometry">
            <mxRectangle width="110" height="40" as="alternateBounds" />
          </mxGeometry>
        </mxCell>
        <mxCell id="WUvIe7gKCcy0REttWwDI-5" value="" style="shape=partialRectangle;html=1;whiteSpace=wrap;connectable=0;strokeColor=inherit;overflow=hidden;fillColor=none;top=0;left=0;bottom=0;right=0;pointerEvents=1;fontSize=16;" vertex="1" parent="WUvIe7gKCcy0REttWwDI-2">
          <mxGeometry x="190" width="50" height="40" as="geometry">
            <mxRectangle width="50" height="40" as="alternateBounds" />
          </mxGeometry>
        </mxCell>
        <mxCell id="WUvIe7gKCcy0REttWwDI-6" value="" style="shape=tableRow;horizontal=0;startSize=0;swimlaneHead=0;swimlaneBody=0;strokeColor=inherit;top=0;left=0;bottom=0;right=0;collapsible=0;dropTarget=0;fillColor=none;points=[[0,0.5],[1,0.5]];portConstraint=eastwest;fontSize=16;" vertex="1" parent="WUvIe7gKCcy0REttWwDI-1">
          <mxGeometry y="70" width="240" height="40" as="geometry" />
        </mxCell>
        <mxCell id="WUvIe7gKCcy0REttWwDI-7" value="FK" style="shape=partialRectangle;html=1;whiteSpace=wrap;connectable=0;strokeColor=inherit;overflow=hidden;fillColor=none;top=0;left=0;bottom=0;right=0;pointerEvents=1;fontSize=16;" vertex="1" parent="WUvIe7gKCcy0REttWwDI-6">
          <mxGeometry width="80" height="40" as="geometry">
            <mxRectangle width="80" height="40" as="alternateBounds" />
          </mxGeometry>
        </mxCell>
        <mxCell id="WUvIe7gKCcy0REttWwDI-8" value="AuthorId" style="shape=partialRectangle;html=1;whiteSpace=wrap;connectable=0;strokeColor=inherit;overflow=hidden;fillColor=none;top=0;left=0;bottom=0;right=0;pointerEvents=1;fontSize=16;" vertex="1" parent="WUvIe7gKCcy0REttWwDI-6">
          <mxGeometry x="80" width="110" height="40" as="geometry">
            <mxRectangle width="110" height="40" as="alternateBounds" />
          </mxGeometry>
        </mxCell>
        <mxCell id="WUvIe7gKCcy0REttWwDI-9" value="" style="shape=partialRectangle;html=1;whiteSpace=wrap;connectable=0;strokeColor=inherit;overflow=hidden;fillColor=none;top=0;left=0;bottom=0;right=0;pointerEvents=1;fontSize=16;" vertex="1" parent="WUvIe7gKCcy0REttWwDI-6">
          <mxGeometry x="190" width="50" height="40" as="geometry">
            <mxRectangle width="50" height="40" as="alternateBounds" />
          </mxGeometry>
        </mxCell>
        <mxCell id="WUvIe7gKCcy0REttWwDI-14" value="BookCategory" style="shape=table;startSize=30;container=1;collapsible=0;childLayout=tableLayout;strokeColor=default;fontSize=16;" vertex="1" parent="1">
          <mxGeometry x="490" y="70" width="240" height="110" as="geometry" />
        </mxCell>
        <mxCell id="WUvIe7gKCcy0REttWwDI-15" value="" style="shape=tableRow;horizontal=0;startSize=0;swimlaneHead=0;swimlaneBody=0;strokeColor=inherit;top=0;left=0;bottom=0;right=0;collapsible=0;dropTarget=0;fillColor=none;points=[[0,0.5],[1,0.5]];portConstraint=eastwest;fontSize=16;" vertex="1" parent="WUvIe7gKCcy0REttWwDI-14">
          <mxGeometry y="30" width="240" height="40" as="geometry" />
        </mxCell>
        <mxCell id="WUvIe7gKCcy0REttWwDI-16" value="FK" style="shape=partialRectangle;html=1;whiteSpace=wrap;connectable=0;strokeColor=inherit;overflow=hidden;fillColor=none;top=0;left=0;bottom=0;right=0;pointerEvents=1;fontSize=16;" vertex="1" parent="WUvIe7gKCcy0REttWwDI-15">
          <mxGeometry width="80" height="40" as="geometry">
            <mxRectangle width="80" height="40" as="alternateBounds" />
          </mxGeometry>
        </mxCell>
        <mxCell id="WUvIe7gKCcy0REttWwDI-17" value="BookId" style="shape=partialRectangle;html=1;whiteSpace=wrap;connectable=0;strokeColor=inherit;overflow=hidden;fillColor=none;top=0;left=0;bottom=0;right=0;pointerEvents=1;fontSize=16;" vertex="1" parent="WUvIe7gKCcy0REttWwDI-15">
          <mxGeometry x="80" width="112" height="40" as="geometry">
            <mxRectangle width="112" height="40" as="alternateBounds" />
          </mxGeometry>
        </mxCell>
        <mxCell id="WUvIe7gKCcy0REttWwDI-18" value="" style="shape=partialRectangle;html=1;whiteSpace=wrap;connectable=0;strokeColor=inherit;overflow=hidden;fillColor=none;top=0;left=0;bottom=0;right=0;pointerEvents=1;fontSize=16;" vertex="1" parent="WUvIe7gKCcy0REttWwDI-15">
          <mxGeometry x="192" width="48" height="40" as="geometry">
            <mxRectangle width="48" height="40" as="alternateBounds" />
          </mxGeometry>
        </mxCell>
        <mxCell id="WUvIe7gKCcy0REttWwDI-19" value="" style="shape=tableRow;horizontal=0;startSize=0;swimlaneHead=0;swimlaneBody=0;strokeColor=inherit;top=0;left=0;bottom=0;right=0;collapsible=0;dropTarget=0;fillColor=none;points=[[0,0.5],[1,0.5]];portConstraint=eastwest;fontSize=16;" vertex="1" parent="WUvIe7gKCcy0REttWwDI-14">
          <mxGeometry y="70" width="240" height="40" as="geometry" />
        </mxCell>
        <mxCell id="WUvIe7gKCcy0REttWwDI-20" value="FK" style="shape=partialRectangle;html=1;whiteSpace=wrap;connectable=0;strokeColor=inherit;overflow=hidden;fillColor=none;top=0;left=0;bottom=0;right=0;pointerEvents=1;fontSize=16;" vertex="1" parent="WUvIe7gKCcy0REttWwDI-19">
          <mxGeometry width="80" height="40" as="geometry">
            <mxRectangle width="80" height="40" as="alternateBounds" />
          </mxGeometry>
        </mxCell>
        <mxCell id="WUvIe7gKCcy0REttWwDI-21" value="CategoryId" style="shape=partialRectangle;html=1;whiteSpace=wrap;connectable=0;strokeColor=inherit;overflow=hidden;fillColor=none;top=0;left=0;bottom=0;right=0;pointerEvents=1;fontSize=16;" vertex="1" parent="WUvIe7gKCcy0REttWwDI-19">
          <mxGeometry x="80" width="112" height="40" as="geometry">
            <mxRectangle width="112" height="40" as="alternateBounds" />
          </mxGeometry>
        </mxCell>
        <mxCell id="WUvIe7gKCcy0REttWwDI-22" value="" style="shape=partialRectangle;html=1;whiteSpace=wrap;connectable=0;strokeColor=inherit;overflow=hidden;fillColor=none;top=0;left=0;bottom=0;right=0;pointerEvents=1;fontSize=16;" vertex="1" parent="WUvIe7gKCcy0REttWwDI-19">
          <mxGeometry x="192" width="48" height="40" as="geometry">
            <mxRectangle width="48" height="40" as="alternateBounds" />
          </mxGeometry>
        </mxCell>
        <mxCell id="WUvIe7gKCcy0REttWwDI-23" value="" style="edgeStyle=orthogonalEdgeStyle;fontSize=12;html=1;endArrow=ERoneToMany;rounded=0;exitX=0;exitY=0.5;exitDx=0;exitDy=0;entryX=0;entryY=0.5;entryDx=0;entryDy=0;" edge="1" parent="1" source="6zmzIqhys5MrnKEYhRIx-15" target="WUvIe7gKCcy0REttWwDI-6">
          <mxGeometry width="100" height="100" relative="1" as="geometry">
            <mxPoint x="190" y="350" as="sourcePoint" />
            <mxPoint x="290" y="250" as="targetPoint" />
            <Array as="points">
              <mxPoint x="-280" y="310" />
              <mxPoint x="-280" y="160" />
            </Array>
          </mxGeometry>
        </mxCell>
        <mxCell id="WUvIe7gKCcy0REttWwDI-25" value="" style="edgeStyle=orthogonalEdgeStyle;fontSize=12;html=1;endArrow=ERoneToMany;rounded=0;exitX=0;exitY=0.5;exitDx=0;exitDy=0;entryX=1;entryY=0.5;entryDx=0;entryDy=0;" edge="1" parent="1" source="6zmzIqhys5MrnKEYhRIx-28" target="WUvIe7gKCcy0REttWwDI-2">
          <mxGeometry width="100" height="100" relative="1" as="geometry">
            <mxPoint x="170" y="320" as="sourcePoint" />
            <mxPoint x="270" y="220" as="targetPoint" />
          </mxGeometry>
        </mxCell>
        <mxCell id="WUvIe7gKCcy0REttWwDI-26" value="" style="edgeStyle=orthogonalEdgeStyle;fontSize=12;html=1;endArrow=ERmany;rounded=0;entryX=0;entryY=0.5;entryDx=0;entryDy=0;exitX=1;exitY=0.5;exitDx=0;exitDy=0;" edge="1" parent="1" source="6zmzIqhys5MrnKEYhRIx-28" target="WUvIe7gKCcy0REttWwDI-15">
          <mxGeometry width="100" height="100" relative="1" as="geometry">
            <mxPoint x="330" y="290" as="sourcePoint" />
            <mxPoint x="430" y="190" as="targetPoint" />
          </mxGeometry>
        </mxCell>
        <mxCell id="WUvIe7gKCcy0REttWwDI-27" value="" style="edgeStyle=orthogonalEdgeStyle;fontSize=12;html=1;endArrow=ERmany;rounded=0;exitX=1;exitY=0.5;exitDx=0;exitDy=0;" edge="1" parent="1" source="YadOb3yuFkTUJ-2XDMgP-2" target="WUvIe7gKCcy0REttWwDI-19">
          <mxGeometry width="100" height="100" relative="1" as="geometry">
            <mxPoint x="404" y="115" as="sourcePoint" />
            <mxPoint x="570" y="130" as="targetPoint" />
            <Array as="points">
              <mxPoint x="780" y="310" />
              <mxPoint x="780" y="160" />
            </Array>
          </mxGeometry>
        </mxCell>
      </root>
    </mxGraphModel>
  </diagram>
</mxfile>
